<svg id="Layer_1" data-name="Layer 1" xmlns="http://www.w3.org/2000/svg" viewBox="0 0 960.81 412.54"><defs><style>.cls-1{fill:#27324e;}.cls-2{fill:#22d3ee;}.cls-3{fill:#2dd4bf;}</style></defs><path class="cls-1" d="M421.84,594a190.82,190.82,0,0,1-128.46-50.4l34.4-43.3q25.26,22.07,48.69,32.27A122.59,122.59,0,0,0,426,542.76q18.24,0,31.5-4.37T478,525.69a28.88,28.88,0,0,0,7.25-19.57q0-15-10.77-23.12t-36.88-12.7l-57.6-10q-36.89-6.26-56.15-26.24t-19.27-51.64q0-27.06,13.88-47.06t39.37-30.61q25.49-10.62,60.7-10.62A195.92,195.92,0,0,1,482.13,305a190,190,0,0,1,56.15,30l-32.32,45q-45.58-35-91.58-35-16.15,0-28.18,4.17t-18.44,11.45a25.29,25.29,0,0,0-6.42,17.28q0,13.33,9.53,20.61t31.91,11l54.7,9.16q43.5,7.08,65,27.7t21.55,54.34q0,28.32-14.92,49.35t-42.47,32.48Q459.12,594,421.84,594Z" transform="translate(-19.59 -293.73)"/><path class="cls-1" d="M579.71,589.82V298.31H639.8V589.82Z" transform="translate(-19.59 -293.73)"/><path class="cls-1" d="M835,594.4q-32.31,0-60.08-11.45A152.73,152.73,0,0,1,726,550.88,148.71,148.71,0,0,1,693,503a152.91,152.91,0,0,1,0-117.85,152,152,0,0,1,32.53-47.89,147.52,147.52,0,0,1,48.69-32.07,156.51,156.51,0,0,1,59.87-11.45,163.75,163.75,0,0,1,68,14.36q31.9,14.37,52.63,40.19L912.86,387a98.5,98.5,0,0,0-35.22-28.32,100.79,100.79,0,0,0-43.51-9.57,88.72,88.72,0,0,0-36,7.28,92,92,0,0,0-29,20,89.47,89.47,0,0,0-19.27,30A101.49,101.49,0,0,0,743,444.07,100.4,100.4,0,0,0,750,482a89.6,89.6,0,0,0,19.68,30.19,93.35,93.35,0,0,0,29.42,20,91,91,0,0,0,36.67,7.29q20.72,0,37.29-7.71a78.11,78.11,0,0,0,28-21.65,73.16,73.16,0,0,0,15.13-31.44H830.4V426.16h150v18.32q0,32.49-11,59.76A146.42,146.42,0,0,1,939,551.71a138,138,0,0,1-46,31.45Q866.45,594.4,835,594.4Z" transform="translate(-19.59 -293.73)"/><path class="cls-1" d="M322.48,688.27a28.3,28.3,0,0,1-10.73-2,26.84,26.84,0,0,1-8.7-5.65,26.37,26.37,0,0,1-5.8-8.45,26.37,26.37,0,0,1,5.84-29.41,27.5,27.5,0,0,1,8.7-5.65,28,28,0,0,1,10.69-2,28.57,28.57,0,0,1,8.22,1.19,29.62,29.62,0,0,1,7.38,3.32,23.19,23.19,0,0,1,5.84,5.16l-7.2,7.16a18.84,18.84,0,0,0-6.42-5.24,17.65,17.65,0,0,0-7.82-1.77,16.25,16.25,0,0,0-6.47,1.29,16,16,0,0,0-5.21,3.54,16.39,16.39,0,0,0-3.45,5.32,17.38,17.38,0,0,0-1.25,6.68,17.16,17.16,0,0,0,1.25,6.6,15.69,15.69,0,0,0,3.52,5.32,16.19,16.19,0,0,0,5.33,3.5,17.9,17.9,0,0,0,14.21-.44,19.11,19.11,0,0,0,6.24-4.87l7,6.94a24.34,24.34,0,0,1-5.8,5.09,28.87,28.87,0,0,1-15.34,4.43Z" transform="translate(-19.59 -293.73)"/><path class="cls-1" d="M366.75,688.27a20.43,20.43,0,0,1-10.35-2.66,20.16,20.16,0,0,1-7.34-7.16,19.19,19.19,0,0,1-2.72-10.11,19.56,19.56,0,0,1,10-17.34,21.64,21.64,0,0,1,20.79,0,19.78,19.78,0,0,1,7.34,7.19,19.57,19.57,0,0,1,2.68,10.15,19.35,19.35,0,0,1-2.68,10.11,19.85,19.85,0,0,1-7.31,7.16A20.56,20.56,0,0,1,366.75,688.27Zm0-8.79a10.08,10.08,0,0,0,5.4-1.47,11,11,0,0,0,3.82-4,11.5,11.5,0,0,0-3.82-15.35,10.34,10.34,0,0,0-10.76,0,10.84,10.84,0,0,0-3.81,4,12.14,12.14,0,0,0,0,11.32,10.55,10.55,0,0,0,3.81,4A10.17,10.17,0,0,0,366.75,679.48Z" transform="translate(-19.59 -293.73)"/><path class="cls-1" d="M393.34,687.53V649.08H403.4v3.17a15.4,15.4,0,0,1,10.72-3.91,15.62,15.62,0,0,1,7.89,1.95,13.94,13.94,0,0,1,5.33,5.39,16.25,16.25,0,0,1,1.91,8v23.84H419.19V665.17a8.16,8.16,0,0,0-2.13-5.95,7.75,7.75,0,0,0-5.8-2.17,10.07,10.07,0,0,0-4.56,1,9.11,9.11,0,0,0-3.3,2.84v26.65Z" transform="translate(-19.59 -293.73)"/><path class="cls-1" d="M451.2,688.27a33.32,33.32,0,0,1-9.76-1.37,23.73,23.73,0,0,1-7.79-3.95l5-6.71a30.15,30.15,0,0,0,6.35,3.32,17.82,17.82,0,0,0,6.06,1.1,10.93,10.93,0,0,0,5.39-1.14,3.38,3.38,0,0,0,2-3,2.84,2.84,0,0,0-1.14-2.36,7.83,7.83,0,0,0-3.63-1.25l-7.34-1.11q-5.73-.88-8.67-3.73a9.93,9.93,0,0,1-2.94-7.49,10.73,10.73,0,0,1,1.95-6.46,12.69,12.69,0,0,1,5.51-4.2,21.56,21.56,0,0,1,8.48-1.52,29.07,29.07,0,0,1,8.19,1.18,26.48,26.48,0,0,1,7.52,3.62l-4.84,6.57a25.76,25.76,0,0,0-6-2.88,19.6,19.6,0,0,0-5.81-.89,8.17,8.17,0,0,0-4.37,1,3.12,3.12,0,0,0-1.65,2.73,2.86,2.86,0,0,0,1.18,2.43,8.89,8.89,0,0,0,4,1.26l7.34,1.11q5.66.81,8.66,3.65a9.63,9.63,0,0,1,3,7.34,10.35,10.35,0,0,1-2.21,6.53,15,15,0,0,1-5.95,4.5A20.93,20.93,0,0,1,451.2,688.27Z" transform="translate(-19.59 -293.73)"/><path class="cls-1" d="M487.77,688.27a15.49,15.49,0,0,1-7.82-2,14,14,0,0,1-5.36-5.43,15.94,15.94,0,0,1-1.94-8V649.08h10.06v22.36a8.07,8.07,0,0,0,2.16,5.9,7.79,7.79,0,0,0,5.84,2.22,10.17,10.17,0,0,0,4.52-1,8.89,8.89,0,0,0,3.34-2.84V649.08h10.06v38.45H498.57v-3.1A15.87,15.87,0,0,1,487.77,688.27Z" transform="translate(-19.59 -293.73)"/><path class="cls-1" d="M516.48,687.53V635.87l10.06-1.7v53.36Z" transform="translate(-19.59 -293.73)"/><path class="cls-1" d="M552.54,688.12q-6.39,0-9.66-2.92c-2.18-1.94-3.26-4.78-3.26-8.52V657.49h-7.86v-8.41h7.86v-9.82l10-2.29v12.11h11v8.41h-11v17.12a5.16,5.16,0,0,0,1.18,3.8c.78.77,2.15,1.15,4.11,1.15a17,17,0,0,0,2.68-.19,14.22,14.22,0,0,0,2.68-.7V687a20.36,20.36,0,0,1-3.82.81A30.66,30.66,0,0,1,552.54,688.12Z" transform="translate(-19.59 -293.73)"/><path class="cls-1" d="M583.75,688.27a20.46,20.46,0,0,1-10.36-2.66,20.16,20.16,0,0,1-7.34-7.16,19.19,19.19,0,0,1-2.72-10.11,19.54,19.54,0,0,1,10-17.34,21.62,21.62,0,0,1,20.78,0,19.56,19.56,0,0,1,10,17.34,19.35,19.35,0,0,1-2.68,10.11,19.82,19.82,0,0,1-7.3,7.16A20.59,20.59,0,0,1,583.75,688.27Zm0-8.79a10.13,10.13,0,0,0,5.4-1.47,10.94,10.94,0,0,0,3.81-4,11.51,11.51,0,0,0-3.81-15.35,10.34,10.34,0,0,0-10.76,0,10.87,10.87,0,0,0-3.82,4,12.14,12.14,0,0,0,0,11.32,10.57,10.57,0,0,0,3.82,4A10.12,10.12,0,0,0,583.75,679.48Z" transform="translate(-19.59 -293.73)"/><path class="cls-1" d="M610.33,687.53V649.08h10.06v4.28a12.6,12.6,0,0,1,4.41-3.84,12.36,12.36,0,0,1,5.8-1.33,9,9,0,0,1,4.18.89v8.85a10.39,10.39,0,0,0-2.42-.77,14.34,14.34,0,0,0-2.72-.26,10.08,10.08,0,0,0-5.36,1.48,10.76,10.76,0,0,0-3.89,4.2v24.95Z" transform="translate(-19.59 -293.73)"/><path class="cls-1" d="M639.34,642.66l6.61-9.6H657.4l-9.91,9.6Zm.95,44.87V649.08h10.06v38.45Z" transform="translate(-19.59 -293.73)"/><path class="cls-1" d="M670.4,688.19a16.6,16.6,0,0,1-7.27-1.51,11.89,11.89,0,0,1-4.92-4.17,10.78,10.78,0,0,1-1.76-6.13,10.06,10.06,0,0,1,4.14-8.59q4.15-3.07,11.42-3.07a28.17,28.17,0,0,1,9.4,1.55v-2.8a6.12,6.12,0,0,0-2-5,9.27,9.27,0,0,0-6-1.7,19.44,19.44,0,0,0-5.22.78,46.55,46.55,0,0,0-6.46,2.4L658,652.47a50.56,50.56,0,0,1,8.7-3.1,34.3,34.3,0,0,1,8.33-1q7.72,0,12,3.73t4.3,10.51v24.95h-9.92V684.8a15.85,15.85,0,0,1-5.06,2.58A20.78,20.78,0,0,1,670.4,688.19Zm-4.41-12a4,4,0,0,0,1.91,3.51A8.9,8.9,0,0,0,673,681a16.23,16.23,0,0,0,4.62-.63,12,12,0,0,0,3.82-1.88v-5.61a20.25,20.25,0,0,0-3.82-1.11,23.79,23.79,0,0,0-4.25-.36,9.69,9.69,0,0,0-5.4,1.29A4,4,0,0,0,666,676.16Z" transform="translate(-19.59 -293.73)"/><path class="cls-1" d="M718.72,644.5a5.46,5.46,0,0,1-4-1.7,5.75,5.75,0,0,1,8.11-8.15,5.86,5.86,0,0,1,0,8.15A5.43,5.43,0,0,1,718.72,644.5Zm-5,43V649.08h10.06v38.45Z" transform="translate(-19.59 -293.73)"/><path class="cls-1" d="M731.64,687.53V649.08H741.7v3.17a15.4,15.4,0,0,1,10.72-3.91,15.66,15.66,0,0,1,7.9,1.95,13.92,13.92,0,0,1,5.32,5.39,16.25,16.25,0,0,1,1.91,8v23.84H757.49V665.17a8.16,8.16,0,0,0-2.13-5.95,7.75,7.75,0,0,0-5.8-2.17,10.1,10.1,0,0,0-4.56,1,9.11,9.11,0,0,0-3.3,2.84v26.65Z" transform="translate(-19.59 -293.73)"/><path class="cls-1" d="M792.22,688.12q-6.39,0-9.65-2.92t-3.27-8.52V657.49h-7.86v-8.41h7.86v-9.82L789.36,637v12.11H800.3v8.41H789.36v17.12a5.16,5.16,0,0,0,1.17,3.8c.79.77,2.16,1.15,4.12,1.15a17.06,17.06,0,0,0,2.68-.19,14.42,14.42,0,0,0,2.68-.7V687a20.54,20.54,0,0,1-3.82.81A30.92,30.92,0,0,1,792.22,688.12Z" transform="translate(-19.59 -293.73)"/><path class="cls-1" d="M823.5,688.27a20.65,20.65,0,0,1-10.39-2.66,20,20,0,0,1-7.38-7.16A19.18,19.18,0,0,1,803,668.34a19.63,19.63,0,0,1,9.69-17.27,19.25,19.25,0,0,1,10-2.66,17.69,17.69,0,0,1,9.76,2.73,19.31,19.31,0,0,1,6.72,7.38,22.23,22.23,0,0,1,2.46,10.56v2.65H813.3a11.56,11.56,0,0,0,2.16,4.14,10.39,10.39,0,0,0,3.75,2.88,11.44,11.44,0,0,0,4.81,1,13.38,13.38,0,0,0,4.73-.81,10.66,10.66,0,0,0,3.71-2.29l6.61,6.05a22.9,22.9,0,0,1-15.57,5.54ZM813.15,664.5h18.58a10,10,0,0,0-5.11-6.75,8.59,8.59,0,0,0-4.14-1,9.15,9.15,0,0,0-4.23,1,9.37,9.37,0,0,0-3.19,2.7A11,11,0,0,0,813.15,664.5Z" transform="translate(-19.59 -293.73)"/><path class="cls-1" d="M867.34,703.32a39.07,39.07,0,0,1-8.51-.92,31.17,31.17,0,0,1-7.42-2.62l3.52-7.82a30.62,30.62,0,0,0,6.17,2.28,25.37,25.37,0,0,0,6,.74c3,0,5.25-.64,6.8-1.92a7.05,7.05,0,0,0,2.31-5.75v-3a17.28,17.28,0,0,1-10.5,3.47,18.69,18.69,0,0,1-9.81-2.62A19.76,19.76,0,0,1,846.34,668a19.13,19.13,0,0,1,2.61-9.89A19.56,19.56,0,0,1,866,648.49a18.52,18.52,0,0,1,5.44.81,19.37,19.37,0,0,1,4.92,2.29v-2.51h9.91v38.37q0,7.6-4.88,11.74T867.34,703.32Zm-.07-24.13a13.5,13.5,0,0,0,5.07-.92,11.18,11.18,0,0,0,3.89-2.62V660.59A11.61,11.61,0,0,0,872.3,658a13.34,13.34,0,0,0-5-.92,11.1,11.1,0,0,0-5.65,1.44,10.72,10.72,0,0,0-5.44,9.48,11.24,11.24,0,0,0,1.44,5.69,10.58,10.58,0,0,0,4,4A10.9,10.9,0,0,0,867.27,679.19Z" transform="translate(-19.59 -293.73)"/><path class="cls-1" d="M894.22,687.53V649.08h10.06v4.28a12.6,12.6,0,0,1,4.41-3.84,12.36,12.36,0,0,1,5.8-1.33,9,9,0,0,1,4.18.89v8.85a10.39,10.39,0,0,0-2.42-.77,14.34,14.34,0,0,0-2.72-.26,10.08,10.08,0,0,0-5.36,1.48,10.76,10.76,0,0,0-3.89,4.2v24.95Z" transform="translate(-19.59 -293.73)"/><path class="cls-1" d="M935.34,688.19a16.63,16.63,0,0,1-7.27-1.51,12,12,0,0,1-4.92-4.17,10.86,10.86,0,0,1-1.76-6.13,10,10,0,0,1,4.15-8.59q4.14-3.07,11.42-3.07a28.21,28.21,0,0,1,9.4,1.55v-2.8a6.13,6.13,0,0,0-2.06-5,9.27,9.27,0,0,0-6-1.7,19.43,19.43,0,0,0-5.21.78,46.63,46.63,0,0,0-6.47,2.4l-3.67-7.46a51.16,51.16,0,0,1,8.7-3.1,34.38,34.38,0,0,1,8.34-1q7.71,0,12,3.73t4.29,10.51v24.95h-9.91V684.8a16,16,0,0,1-5.07,2.58A20.73,20.73,0,0,1,935.34,688.19Zm-4.4-12a4,4,0,0,0,1.91,3.51,8.89,8.89,0,0,0,5.06,1.29,16.25,16.25,0,0,0,4.63-.63,12.06,12.06,0,0,0,3.82-1.88v-5.61a20.69,20.69,0,0,0-3.82-1.11,23.82,23.82,0,0,0-4.26-.36,9.71,9.71,0,0,0-5.4,1.29A4,4,0,0,0,930.94,676.16Z" transform="translate(-19.59 -293.73)"/><path class="cls-1" d="M963.91,687.53V635.87l10.06-1.7v53.36Z" transform="translate(-19.59 -293.73)"/><path class="cls-2" d="M254.13,294.77c13.75,78.37-210.95,204.79-193.94,301.8C17.46,552.66-5.07,496,62.18,422.09S254.13,294.77,254.13,294.77Z" transform="translate(-19.59 -293.73)"/><path class="cls-3" d="M24.09,706.27C10.34,627.9,235,501.48,218,404.47,260.76,448.38,283.29,505,216,579S24.09,706.27,24.09,706.27Z" transform="translate(-19.59 -293.73)"/></svg>