<svg xmlns="http://www.w3.org/2000/svg" id="a" viewBox="0 0 187.29 30.49"><defs><style>.b{fill:#f97316}</style></defs><path d="m30.49 0 15.25 30.49h-7.63L26.68 7.62 30.49 0zM15.25 0l15.24 30.49h-7.62L11.43 7.62 15.25 0zM7.62 15.25l3.81 7.62-3.81 7.62H0l3.81-7.62 3.81-7.62z" class="b"/><g><path d="M54.66 12.77v-9.1h2.42l2.5 4.91 2.5-4.91h2.42v9.1h-1.78V6.08l-3.16 6.04-3.15-6.07v6.72h-1.74ZM69.31 12.9c-.68 0-1.29-.16-1.83-.47-.55-.31-.98-.73-1.3-1.26-.32-.53-.48-1.12-.48-1.78s.16-1.25.47-1.79c.32-.53.75-.96 1.3-1.27.55-.31 1.16-.47 1.84-.47s1.29.16 1.84.47c.55.31.98.73 1.3 1.27.32.53.47 1.13.47 1.79s-.16 1.25-.47 1.78c-.32.53-.75.95-1.29 1.26-.55.31-1.16.47-1.85.47Zm0-1.55c.36 0 .67-.09.96-.26.28-.17.51-.41.68-.71.17-.3.25-.63.25-.99s-.08-.71-.25-1c-.17-.29-.39-.53-.68-.71-.28-.18-.6-.27-.96-.27s-.66.09-.95.27c-.29.18-.51.41-.68.71s-.25.63-.25 1 .08.7.25.99.39.54.68.71c.29.17.6.26.95.26ZM77.15 12.86c-.64 0-1.22-.16-1.74-.47-.52-.31-.93-.73-1.24-1.25s-.46-1.11-.46-1.76.15-1.24.46-1.76.73-.94 1.25-1.25 1.12-.46 1.78-.46c.34 0 .66.05.97.14s.6.22.87.4V3.67l1.78-.3v9.4h-1.76v-.56c-.55.43-1.2.65-1.92.65Zm.29-1.52c.33 0 .63-.05.9-.16s.51-.27.71-.49V8.05c-.2-.2-.44-.36-.71-.47-.28-.11-.58-.17-.9-.17-.37 0-.71.08-1.01.25-.3.17-.54.4-.71.7s-.26.63-.26 1.01.09.71.26 1c.17.29.41.53.71.7.3.17.63.26 1.01.26ZM84.85 12.9c-.52 0-.98-.12-1.38-.34-.4-.23-.72-.55-.95-.96-.23-.41-.34-.88-.34-1.4V6h1.78v3.94c0 .43.13.78.38 1.04.26.26.6.39 1.03.39.29 0 .56-.06.8-.17.24-.12.44-.28.59-.5V6h1.78v6.77h-1.78v-.55c-.52.45-1.16.68-1.91.68ZM89.93 12.77v-9.1l1.78-.3v9.4h-1.78ZM96.4 12.9c-.68 0-1.29-.16-1.83-.47-.55-.31-.98-.73-1.3-1.26-.32-.53-.48-1.12-.48-1.78s.16-1.25.47-1.79c.32-.53.75-.96 1.3-1.27.55-.31 1.16-.47 1.84-.47s1.29.16 1.84.47c.55.31.98.73 1.3 1.27.32.53.47 1.13.47 1.79s-.16 1.25-.47 1.78c-.32.53-.75.95-1.29 1.26-.55.31-1.16.47-1.85.47Zm0-1.55c.36 0 .67-.09.96-.26.28-.17.51-.41.68-.71.17-.3.25-.63.25-.99s-.08-.71-.25-1c-.17-.29-.39-.53-.68-.71-.28-.18-.6-.27-.96-.27s-.66.09-.95.27c-.29.18-.51.41-.68.71s-.25.63-.25 1 .08.7.25.99.39.54.68.71c.29.17.6.26.95.26ZM103.64 12.9c-.62 0-1.2-.08-1.73-.24s-.99-.39-1.38-.7l.88-1.18c.39.26.76.46 1.12.58.36.13.72.2 1.07.2.4 0 .72-.07.96-.2s.36-.31.36-.53c0-.17-.07-.31-.2-.42-.13-.1-.35-.18-.64-.22l-1.3-.19c-.68-.1-1.19-.32-1.53-.66-.35-.33-.52-.77-.52-1.32 0-.44.12-.82.34-1.14.23-.32.55-.56.98-.74s.92-.27 1.5-.27c.49 0 .98.07 1.45.21.47.14.92.35 1.33.64l-.86 1.16c-.37-.23-.73-.4-1.07-.51-.34-.1-.68-.16-1.03-.16-.32 0-.58.06-.77.18-.2.12-.29.28-.29.48 0 .18.07.32.21.43.14.1.38.18.71.22l1.29.2c.68.1 1.19.31 1.55.64s.53.76.53 1.29c0 .43-.13.82-.39 1.15-.26.33-.61.6-1.05.79-.44.19-.95.29-1.52.29ZM109.35 12.77l3.74-9.1h2.17l3.71 9.1h-2.04l-.92-2.39h-3.76l-.94 2.39h-1.96Zm3.48-3.9h2.6l-1.3-3.35-1.3 3.35ZM119.62 15.43V6h1.75v.56c.55-.43 1.2-.65 1.92-.65.64 0 1.22.16 1.74.47.52.31.93.73 1.24 1.25s.46 1.11.46 1.76-.16 1.24-.47 1.76c-.31.52-.73.94-1.26 1.25-.53.31-1.12.46-1.77.46-.34 0-.66-.04-.98-.14-.31-.09-.6-.22-.87-.4v3.09h-1.78Zm3.39-4.07c.37 0 .71-.09 1.01-.26.3-.17.54-.41.71-.7.17-.29.26-.63.26-1s-.09-.71-.26-1.01c-.17-.3-.41-.53-.71-.7s-.63-.25-1.01-.25c-.33 0-.63.05-.9.16s-.51.27-.71.49v2.64c.19.2.43.36.71.47s.58.17.9.17ZM127.82 12.77v-9.1l1.78-.3v9.4h-1.78ZM131.88 5.19c-.28 0-.52-.1-.71-.3s-.3-.44-.3-.71.1-.53.3-.72.44-.29.71-.29.53.1.72.29.29.44.29.72-.1.52-.29.71-.44.3-.72.3Zm-.88 7.58V6h1.78v6.77H131ZM137.41 12.9c-.67 0-1.27-.15-1.81-.46s-.96-.73-1.27-1.26c-.31-.53-.47-1.13-.47-1.79s.16-1.27.47-1.79c.31-.53.74-.95 1.27-1.26.54-.31 1.14-.47 1.81-.47.54 0 1.05.1 1.54.31s.91.51 1.27.9l-1.09 1.16c-.25-.28-.51-.48-.79-.62-.27-.13-.57-.2-.89-.2-.35 0-.66.09-.93.26s-.49.41-.65.7c-.16.29-.24.63-.24 1.01s.08.7.24.99.38.53.67.7c.29.17.6.25.95.25.3 0 .59-.06.85-.19s.52-.31.76-.57l1.07 1.12c-.35.37-.76.67-1.25.88s-.99.32-1.51.32ZM143.24 12.89c-.49 0-.92-.09-1.29-.27-.37-.18-.66-.42-.87-.73-.21-.31-.31-.67-.31-1.08 0-.65.25-1.16.73-1.51.49-.36 1.16-.54 2.02-.54.59 0 1.14.09 1.66.27v-.49c0-.39-.12-.68-.36-.88-.24-.2-.6-.3-1.07-.3-.29 0-.59.04-.92.14-.33.09-.71.23-1.14.42l-.65-1.31c.54-.24 1.05-.42 1.54-.55.49-.12.98-.18 1.48-.18.91 0 1.62.22 2.13.66s.76 1.05.76 1.85v4.39h-1.76v-.48c-.28.21-.58.36-.9.46-.32.1-.67.14-1.05.14Zm-.78-2.12c0 .26.11.47.34.62.23.15.52.23.9.23.29 0 .57-.04.82-.11s.48-.18.68-.33v-.99c-.22-.09-.44-.15-.68-.2-.23-.04-.49-.06-.75-.06-.41 0-.73.08-.96.23-.23.15-.34.36-.34.62ZM151.54 12.9c-.67 0-1.27-.15-1.81-.46s-.96-.73-1.27-1.26c-.31-.53-.47-1.13-.47-1.79s.16-1.27.47-1.79c.31-.53.74-.95 1.27-1.26.54-.31 1.14-.47 1.81-.47.54 0 1.05.1 1.54.31s.91.51 1.27.9l-1.09 1.16c-.25-.28-.51-.48-.79-.62-.27-.13-.57-.2-.89-.2-.35 0-.66.09-.93.26s-.49.41-.65.7c-.16.29-.24.63-.24 1.01s.08.7.24.99.38.53.67.7c.29.17.6.25.95.25.3 0 .59-.06.85-.19s.52-.31.76-.57l1.07 1.12c-.35.37-.76.67-1.25.88s-.99.32-1.51.32ZM156.1 5.19c-.28 0-.52-.1-.71-.3s-.3-.44-.3-.71.1-.53.3-.72.44-.29.71-.29.53.1.72.29.29.44.29.72-.1.52-.29.71-.44.3-.72.3Zm-.88 7.58V6H157v6.77h-1.78ZM161.69 12.9c-.68 0-1.29-.16-1.83-.47-.55-.31-.98-.73-1.3-1.26-.32-.53-.48-1.12-.48-1.78s.16-1.25.47-1.79c.32-.53.75-.96 1.3-1.27.55-.31 1.16-.47 1.84-.47s1.29.16 1.84.47c.55.31.98.73 1.3 1.27.32.53.47 1.13.47 1.79s-.16 1.25-.47 1.78c-.32.53-.75.95-1.29 1.26-.55.31-1.16.47-1.85.47Zm0-1.55c.36 0 .67-.09.96-.26.28-.17.51-.41.68-.71s.25-.63.25-.99-.08-.71-.25-1-.39-.53-.68-.71c-.28-.18-.6-.27-.96-.27s-.66.09-.95.27c-.29.18-.51.41-.68.71s-.25.63-.25 1 .08.7.25.99.39.54.68.71c.29.17.6.26.95.26ZM166.39 12.77V6h1.78v.56c.51-.46 1.14-.69 1.9-.69.53 0 1 .12 1.4.34.4.23.72.55.94.95s.34.87.34 1.41v4.2h-1.78V8.83c0-.44-.13-.79-.38-1.05s-.59-.38-1.03-.38c-.3 0-.57.06-.81.18-.23.12-.43.28-.58.5v4.69h-1.78ZM177.42 12.9c-.68 0-1.29-.16-1.84-.47-.55-.31-.99-.73-1.31-1.26-.32-.53-.48-1.12-.48-1.78s.15-1.25.46-1.78c.31-.53.73-.95 1.25-1.26.53-.31 1.12-.47 1.77-.47s1.23.16 1.73.48c.5.32.9.75 1.19 1.3.29.55.43 1.17.43 1.86v.47h-5.02c.08.27.21.51.38.73s.4.39.66.51.55.18.85.18.58-.05.84-.14.47-.23.66-.4l1.17 1.07c-.42.34-.84.58-1.28.74-.44.16-.93.23-1.48.23Zm-1.83-4.19h3.29c-.06-.27-.17-.5-.33-.71-.16-.2-.35-.36-.57-.48-.22-.12-.47-.18-.73-.18s-.53.06-.75.17-.41.27-.57.47c-.15.2-.26.44-.33.72ZM184.32 12.9c-.62 0-1.2-.08-1.73-.24s-.99-.39-1.38-.7l.88-1.18c.39.26.76.46 1.12.58.36.13.72.2 1.07.2.4 0 .72-.07.96-.2s.36-.31.36-.53c0-.17-.07-.31-.2-.42-.13-.1-.35-.18-.64-.22l-1.3-.19c-.68-.1-1.19-.32-1.53-.66-.35-.33-.52-.77-.52-1.32 0-.44.11-.82.34-1.14.23-.32.55-.56.97-.74.42-.18.92-.27 1.5-.27.49 0 .98.07 1.45.21.47.14.92.35 1.33.64l-.86 1.16c-.37-.23-.73-.4-1.07-.51-.34-.1-.68-.16-1.03-.16-.32 0-.58.06-.77.18-.19.12-.29.28-.29.48 0 .18.07.32.21.43.14.1.38.18.71.22l1.29.2c.68.1 1.19.31 1.55.64s.53.76.53 1.29c0 .43-.13.82-.39 1.15-.26.33-.61.6-1.05.79-.44.19-.95.29-1.52.29ZM85.98 28.5c-.68 0-1.29-.16-1.84-.47-.55-.31-.99-.73-1.31-1.26-.32-.53-.48-1.12-.48-1.78s.15-1.25.46-1.78c.31-.53.73-.95 1.25-1.26.53-.31 1.12-.47 1.77-.47s1.23.16 1.73.48c.5.32.9.75 1.19 1.3s.44 1.17.44 1.86v.47h-5.02c.08.27.21.51.38.73s.4.39.66.51.55.18.85.18.58-.05.84-.14c.26-.1.47-.23.66-.4l1.17 1.07c-.42.34-.84.58-1.28.74-.44.16-.93.23-1.48.23Zm-1.83-4.19h3.29c-.06-.27-.17-.5-.33-.71-.16-.2-.35-.36-.57-.48-.22-.12-.47-.18-.73-.18s-.53.06-.75.17c-.23.11-.41.27-.57.47-.15.2-.26.44-.33.72ZM93.02 28.37v-9.1h1.89v9.1h-1.89ZM96.44 28.37V21.6h1.78v.56c.51-.46 1.14-.69 1.9-.69.53 0 1 .12 1.4.34.4.23.72.55.94.95.22.4.34.87.34 1.41v4.2h-1.78v-3.94c0-.44-.13-.79-.38-1.05s-.59-.38-1.03-.38c-.3 0-.57.06-.81.18-.23.12-.43.28-.58.5v4.69h-1.78ZM104.14 28.37V21.6h1.78v.56c.51-.46 1.14-.69 1.9-.69.53 0 1 .12 1.4.34.4.23.72.55.94.95s.34.87.34 1.41v4.2h-1.78v-3.94c0-.44-.13-.79-.38-1.05s-.59-.38-1.03-.38c-.3 0-.57.06-.81.18-.23.12-.43.28-.58.5v4.69h-1.78ZM115.16 28.5c-.68 0-1.29-.16-1.83-.47-.55-.31-.98-.73-1.3-1.26-.32-.53-.48-1.12-.48-1.78s.16-1.25.47-1.79c.32-.53.75-.96 1.3-1.27.55-.31 1.16-.47 1.84-.47s1.29.16 1.84.47c.55.31.98.73 1.3 1.27.32.53.47 1.13.47 1.79s-.16 1.25-.47 1.78c-.32.53-.75.95-1.29 1.26-.55.31-1.16.47-1.85.47Zm0-1.55c.36 0 .67-.09.96-.26.28-.17.51-.41.68-.71s.25-.63.25-.99-.08-.71-.25-1-.39-.53-.68-.71c-.28-.18-.6-.27-.96-.27s-.66.09-.95.27c-.29.18-.51.41-.68.71s-.25.63-.25 1 .08.7.25.99.39.54.68.71c.29.17.6.26.95.26ZM121.86 28.37l-2.9-6.77h1.94l1.86 4.51 1.85-4.51h1.9l-2.91 6.77h-1.73ZM129.18 28.49c-.49 0-.92-.09-1.29-.27-.37-.18-.66-.42-.87-.73-.21-.31-.31-.67-.31-1.08 0-.65.25-1.16.73-1.51.49-.36 1.16-.54 2.02-.54.59 0 1.14.09 1.66.27v-.49c0-.39-.12-.68-.36-.88-.24-.2-.6-.3-1.07-.3-.29 0-.59.04-.92.14-.33.09-.71.23-1.14.42l-.65-1.31c.54-.24 1.05-.42 1.54-.55.49-.12.98-.18 1.48-.18.91 0 1.62.22 2.13.66s.76 1.05.76 1.85v4.39h-1.76v-.48c-.28.21-.58.36-.9.46-.32.1-.67.14-1.05.14Zm-.78-2.12c0 .26.11.47.34.62.23.15.52.23.9.23.29 0 .57-.04.82-.11s.48-.18.68-.33v-.99c-.22-.09-.44-.15-.68-.2-.23-.04-.49-.06-.75-.06-.41 0-.73.08-.96.23-.23.15-.34.36-.34.62ZM137.48 28.5c-.67 0-1.27-.15-1.81-.46s-.96-.73-1.27-1.26c-.31-.53-.47-1.13-.47-1.79s.16-1.27.47-1.79c.31-.53.74-.95 1.27-1.26.54-.31 1.14-.47 1.81-.47.54 0 1.05.1 1.54.31s.91.51 1.27.9l-1.09 1.16c-.25-.28-.51-.48-.79-.62-.27-.13-.57-.2-.89-.2-.35 0-.66.09-.93.26s-.49.41-.65.7c-.16.29-.24.63-.24 1.01s.08.7.24.99.38.53.67.7c.29.17.6.25.95.25.3 0 .59-.06.85-.19s.52-.31.76-.57l1.07 1.12c-.35.37-.76.67-1.25.88s-.99.32-1.51.32ZM142.04 20.79c-.28 0-.52-.1-.71-.3s-.3-.44-.3-.71.1-.53.3-.72.44-.29.71-.29.53.1.72.29.29.44.29.72-.1.52-.29.71-.44.3-.72.3Zm-.88 7.58V21.6h1.78v6.77h-1.78ZM147.63 28.5c-.68 0-1.29-.16-1.83-.47-.55-.31-.98-.73-1.3-1.26-.32-.53-.48-1.12-.48-1.78s.16-1.25.47-1.79c.32-.53.75-.96 1.3-1.27.55-.31 1.16-.47 1.84-.47s1.29.16 1.84.47c.55.31.98.73 1.3 1.27.32.53.47 1.13.47 1.79s-.16 1.25-.47 1.78c-.32.53-.75.95-1.29 1.26-.55.31-1.16.47-1.85.47Zm0-1.55c.36 0 .67-.09.96-.26.28-.17.51-.41.68-.71s.25-.63.25-.99-.08-.71-.25-1-.39-.53-.68-.71c-.28-.18-.6-.27-.96-.27s-.66.09-.95.27c-.29.18-.51.41-.68.71s-.25.63-.25 1 .08.7.25.99.39.54.68.71c.29.17.6.26.95.26Zm-1.05-6.49 1.17-1.69h2.03l-1.76 1.69h-1.44ZM152.34 28.37V21.6h1.78v.56c.51-.46 1.14-.69 1.9-.69.53 0 1 .12 1.4.34.4.23.72.55.94.95s.34.87.34 1.41v4.2h-1.78v-3.94c0-.44-.13-.79-.38-1.05s-.59-.38-1.03-.38c-.3 0-.57.06-.81.18-.23.12-.43.28-.58.5v4.69h-1.78Z" class="b"/></g></svg>