<svg xmlns="http://www.w3.org/2000/svg" viewBox="0 0 586.77 199.18"><defs><style>.a{fill:#fc771d;}.b{fill:#e64610;}</style></defs><path class="a" d="M428.82,557.74a44.77,44.77,0,0,1-22.49-5.54A39.75,39.75,0,0,1,391,536.69a45.82,45.82,0,0,1-5.55-22.7V447h33.28v62.43q0,8.84,5.44,14.28t14.27,5.44a26.79,26.79,0,0,0,11.3-2.26,22.16,22.16,0,0,0,8.22-6.36V447h33.27V555.69H458v-7.4Q445.66,557.74,428.82,557.74Z" transform="translate(-206.62 -400.41)"/><path class="a" d="M528.43,437a18.23,18.23,0,1,1,12.94-5.34A17.6,17.6,0,0,1,528.43,437ZM511.8,555.69V447h33.27V555.69Z" transform="translate(-206.62 -400.41)"/><path class="a" d="M618.19,557.74a58.27,58.27,0,0,1-29.27-7.39,57,57,0,0,1-20.64-77.64,56.18,56.18,0,0,1,20.64-20.23,57.63,57.63,0,0,1,29.27-7.5,63.6,63.6,0,0,1,25.47,5.24,56.78,56.78,0,0,1,20.53,14.89l-20.33,21.16a39.09,39.09,0,0,0-11.71-9.55,28.9,28.9,0,0,0-13.14-3,23.93,23.93,0,0,0-12.94,3.59,25.18,25.18,0,0,0-9,9.86,30.27,30.27,0,0,0-3.28,14.27,29.15,29.15,0,0,0,3.38,14.07A25.31,25.31,0,0,0,619.83,529a27.6,27.6,0,0,0,12.53-2.88,37.85,37.85,0,0,0,11.09-8.83l19.72,20.54A56.31,56.31,0,0,1,643,552.5,61,61,0,0,1,618.19,557.74Z" transform="translate(-206.62 -400.41)"/><path class="a" d="M676.31,555.69V411.91l33.27-5.13V491.4L752.92,447H790.1l-48.27,49.08,51.55,59.57h-42.1L709.58,507v48.68Z" transform="translate(-206.62 -400.41)"/><path class="a" d="M255.08,477.37c0,.57-.05,1.13-.05,1.71C255,478.5,255.06,477.94,255.08,477.37Z" transform="translate(-206.62 -400.41)"/><path class="a" d="M357.88,509.33a78.42,78.42,0,0,0,6-27.45c0-.93.08-1.86.08-2.8s0-1.87-.08-2.81a54.44,54.44,0,0,0-108.79,1.1,30.25,30.25,0,0,1,30.2-28.55,54.45,54.45,0,0,1,54.46,54.46,54.78,54.78,0,0,1-.34,6.05H285.28a54.46,54.46,0,0,1-2.8-108.85,78.64,78.64,0,0,0-75.79,75.79c0,.94-.07,1.87-.07,2.81s0,1.87.07,2.8a54.46,54.46,0,0,0,75.79,47.28v28.58h83.28V509.33Z" transform="translate(-206.62 -400.41)"/><path d="M544.73,591.88v-25.2h11.41a9.88,9.88,0,0,1,4.41.94,7,7,0,0,1,4,6.52,6.74,6.74,0,0,1-1.41,4.28,7.73,7.73,0,0,1-3.78,2.59L565,591.88h-4.18l-5.22-10.33h-7.09v10.33Zm3.78-13.5h7.34a5.38,5.38,0,0,0,3.59-1.13,3.81,3.81,0,0,0,1.35-3.08,3.77,3.77,0,0,0-1.35-3,5.34,5.34,0,0,0-3.59-1.16h-7.34Z" transform="translate(-206.62 -400.41)"/><path d="M569.82,570.61a2.08,2.08,0,0,1-1.55-.67,2.15,2.15,0,0,1-.64-1.56,2.1,2.1,0,0,1,.64-1.57,2.16,2.16,0,0,1,1.55-.63,2.2,2.2,0,0,1,1.59.63,2.1,2.1,0,0,1,.64,1.57,2.15,2.15,0,0,1-.64,1.56A2.12,2.12,0,0,1,569.82,570.61ZM568,591.88V573.56h3.6v18.32Z" transform="translate(-206.62 -400.41)"/><path d="M582.17,592.24a13.74,13.74,0,0,1-4.45-.7,10.68,10.68,0,0,1-3.58-2l2-2.37a11.74,11.74,0,0,0,2.9,1.71,8.3,8.3,0,0,0,3,.59,6,6,0,0,0,3.17-.75,2.26,2.26,0,0,0,1.22-2,1.93,1.93,0,0,0-.72-1.59,4.62,4.62,0,0,0-2.23-.79l-3.31-.47a7.33,7.33,0,0,1-4.1-1.69,4.51,4.51,0,0,1-1.37-3.46,4.78,4.78,0,0,1,.9-2.89,6,6,0,0,1,2.52-2,9.41,9.41,0,0,1,3.78-.7,12.43,12.43,0,0,1,3.81.58,12.25,12.25,0,0,1,3.53,1.79L587.43,578a12.23,12.23,0,0,0-2.94-1.47,8.88,8.88,0,0,0-2.86-.47,4.53,4.53,0,0,0-2.66.7,2.11,2.11,0,0,0-1,1.82,1.87,1.87,0,0,0,.7,1.56,4.81,4.81,0,0,0,2.32.78l3.31.47a7.61,7.61,0,0,1,4.14,1.67,4.41,4.41,0,0,1,1.41,3.44,4.78,4.78,0,0,1-1,3,6.85,6.85,0,0,1-2.74,2.07A9.75,9.75,0,0,1,582.17,592.24Z" transform="translate(-206.62 -400.41)"/><path d="M592.61,591.88v-25.2l3.6-.68v15.59l8.89-8h4.21l-9.46,8.57,10,9.75h-4.76l-8.85-8.6v8.6Z" transform="translate(-206.62 -400.41)"/><path d="M631.56,592.28a13.45,13.45,0,0,1-5.2-1,13.17,13.17,0,0,1-4.21-2.77,12.46,12.46,0,0,1-2.81-4.14,13.61,13.61,0,0,1,0-10.19,12.46,12.46,0,0,1,2.81-4.14,13,13,0,0,1,4.23-2.77,13.46,13.46,0,0,1,5.18-1,14.39,14.39,0,0,1,3.87.52,13.76,13.76,0,0,1,3.49,1.49,11.73,11.73,0,0,1,2.79,2.34l-2.52,2.6a9.07,9.07,0,0,0-3.42-2.58,10.35,10.35,0,0,0-4.21-.88,9.54,9.54,0,0,0-3.73.72,9,9,0,0,0-4.93,5,9.93,9.93,0,0,0-.7,3.78,9.82,9.82,0,0,0,.7,3.75,9.1,9.1,0,0,0,2,3,9.26,9.26,0,0,0,3,2,9.67,9.67,0,0,0,3.75.72,10,10,0,0,0,4.16-.89,9.32,9.32,0,0,0,3.33-2.5l2.48,2.52a13.71,13.71,0,0,1-2.86,2.32,13.24,13.24,0,0,1-3.46,1.52A13.7,13.7,0,0,1,631.56,592.28Z" transform="translate(-206.62 -400.41)"/><path d="M653.09,592.24a9.47,9.47,0,0,1-4.84-1.26,9.25,9.25,0,0,1-3.44-3.42A9.61,9.61,0,0,1,658,574.48a9.48,9.48,0,0,1,3.42,3.44,9.48,9.48,0,0,1-8.28,14.32Zm0-3.17a5.72,5.72,0,0,0,3.06-.84,6.1,6.1,0,0,0,2.16-2.29,6.59,6.59,0,0,0,.79-3.24,6.32,6.32,0,0,0-.81-3.18,6.5,6.5,0,0,0-2.16-2.29,5.8,5.8,0,0,0-6.08,0,6.5,6.5,0,0,0-2.16,2.29,6.32,6.32,0,0,0-.81,3.18,6.59,6.59,0,0,0,.79,3.24,6.1,6.1,0,0,0,2.16,2.29A5.72,5.72,0,0,0,653.09,589.07Z" transform="translate(-206.62 -400.41)"/><path d="M666.05,591.88V573.56h3.6v1.87a7.24,7.24,0,0,1,5.51-2.23,7.48,7.48,0,0,1,3.72.9,6.49,6.49,0,0,1,2.52,2.52,7.48,7.48,0,0,1,.92,3.74v11.52h-3.6V581a4.66,4.66,0,0,0-1.21-3.41,4.45,4.45,0,0,0-3.36-1.24,5.5,5.5,0,0,0-2.59.61,5.13,5.13,0,0,0-1.91,1.77v13.17Z" transform="translate(-206.62 -400.41)"/><path d="M692.76,592.24a13.74,13.74,0,0,1-4.45-.7,10.68,10.68,0,0,1-3.58-2l2-2.37a11.74,11.74,0,0,0,2.9,1.71,8.26,8.26,0,0,0,3,.59,6,6,0,0,0,3.17-.75,2.26,2.26,0,0,0,1.22-2,1.93,1.93,0,0,0-.72-1.59,4.62,4.62,0,0,0-2.23-.79l-3.31-.47a7.37,7.37,0,0,1-4.1-1.69,4.51,4.51,0,0,1-1.37-3.46,4.78,4.78,0,0,1,.9-2.89,6,6,0,0,1,2.52-2,9.41,9.41,0,0,1,3.78-.7,12.43,12.43,0,0,1,3.81.58,12.25,12.25,0,0,1,3.53,1.79L698,578a12.23,12.23,0,0,0-2.94-1.47,8.88,8.88,0,0,0-2.86-.47,4.55,4.55,0,0,0-2.66.7,2.11,2.11,0,0,0-1,1.82,1.87,1.87,0,0,0,.7,1.56,4.81,4.81,0,0,0,2.32.78l3.31.47A7.61,7.61,0,0,1,699,583a4.41,4.41,0,0,1,1.41,3.44,4.78,4.78,0,0,1-1,3,6.85,6.85,0,0,1-2.74,2.07A9.75,9.75,0,0,1,692.76,592.24Z" transform="translate(-206.62 -400.41)"/><path d="M710.29,592.24a7.58,7.58,0,0,1-3.74-.9,6.33,6.33,0,0,1-2.52-2.53,7.73,7.73,0,0,1-.9-3.77V573.56h3.56v10.87a4.69,4.69,0,0,0,1.24,3.42,4.47,4.47,0,0,0,3.33,1.26,5.38,5.38,0,0,0,2.63-.63,5,5,0,0,0,1.87-1.78V573.56h3.6v18.32h-3.6V590A7.2,7.2,0,0,1,710.29,592.24Z" transform="translate(-206.62 -400.41)"/><path d="M723.61,591.88v-25.2l3.6-.68v25.88Z" transform="translate(-206.62 -400.41)"/><path d="M739.31,592.21a6,6,0,0,1-4.07-1.24,4.58,4.58,0,0,1-1.41-3.62V576.58H730v-3h3.88v-4.68l3.57-.86v5.54h5.4v3h-5.4v9.94a2.68,2.68,0,0,0,.63,2,3,3,0,0,0,2.07.59,7.84,7.84,0,0,0,1.35-.11,11.38,11.38,0,0,0,1.28-.32v3a8,8,0,0,1-1.68.38A14.16,14.16,0,0,1,739.31,592.21Z" transform="translate(-206.62 -400.41)"/><path d="M747.26,570.61a2.08,2.08,0,0,1-1.55-.67,2.15,2.15,0,0,1-.64-1.56,2.1,2.1,0,0,1,.64-1.57,2.16,2.16,0,0,1,1.55-.63,2.2,2.2,0,0,1,1.59.63,2.1,2.1,0,0,1,.64,1.57,2.15,2.15,0,0,1-.64,1.56A2.12,2.12,0,0,1,747.26,570.61Zm-1.8,21.27V573.56h3.6v18.32Z" transform="translate(-206.62 -400.41)"/><path d="M753.31,591.88V573.56h3.6v1.87a7.26,7.26,0,0,1,5.51-2.23,7.45,7.45,0,0,1,3.72.9,6.49,6.49,0,0,1,2.52,2.52,7.38,7.38,0,0,1,.92,3.74v11.52H766V581a4.7,4.7,0,0,0-1.2-3.41,4.48,4.48,0,0,0-3.37-1.24,5.53,5.53,0,0,0-2.59.61,5.13,5.13,0,0,0-1.91,1.77v13.17Z" transform="translate(-206.62 -400.41)"/><path d="M782.79,599.59a16.49,16.49,0,0,1-3.92-.47,14,14,0,0,1-3.46-1.33l1.37-2.81a16.12,16.12,0,0,0,3,1.21,11.17,11.17,0,0,0,2.86.37,5.34,5.34,0,0,0,3.66-1.11,4.19,4.19,0,0,0,1.24-3.28v-2.09a8.59,8.59,0,0,1-5.51,1.91,8.89,8.89,0,0,1-4.62-1.24,9,9,0,0,1-3.33-3.39,9.72,9.72,0,0,1,0-9.5,9.12,9.12,0,0,1,8.08-4.62,8.72,8.72,0,0,1,2.86.48,9.11,9.11,0,0,1,2.54,1.39v-1.55h3.56v18.61a6.94,6.94,0,0,1-2.18,5.49A9,9,0,0,1,782.79,599.59Zm-.25-10.69a7.22,7.22,0,0,0,2.88-.56,5.61,5.61,0,0,0,2.16-1.6v-8.21a6,6,0,0,0-2.18-1.59,7.09,7.09,0,0,0-2.86-.57,5.86,5.86,0,0,0-3.11.83,6,6,0,0,0-2.2,2.25,6.67,6.67,0,0,0,0,6.37,6,6,0,0,0,5.31,3.08Z" transform="translate(-206.62 -400.41)"/><path class="b" d="M288.08,400.48c-.93,0-1.86-.07-2.8-.07s-1.87,0-2.8.07a54.46,54.46,0,0,0,2.8,108.85A30.25,30.25,0,0,1,255,479.08a54.16,54.16,0,0,1,5.8-24.46,54.46,54.46,0,0,1,103,21.65A78.63,78.63,0,0,0,288.08,400.48Z" transform="translate(-206.62 -400.41)"/><path class="b" d="M334.07,479.08a54.48,54.48,0,0,0-48.79-30.26,30.26,30.26,0,0,1,30.26,30.26,54.46,54.46,0,0,1-108.85,2.8,78.64,78.64,0,0,0,75.79,75.79c.93,0,1.86.07,2.8.07s1.87,0,2.8-.07a54.47,54.47,0,0,0,46-78.59Z" transform="translate(-206.62 -400.41)"/></svg>